<?xml version="1.0" encoding="UTF-8" ?>
<!DOCTYPE svg PUBLIC "-//W3C//DTD SVG 1.1//EN" "http://www.w3.org/Graphics/SVG/1.1/DTD/svg11.dtd">
<svg width="663pt" height="578pt" viewBox="0 0 663 578" version="1.1" xmlns="http://www.w3.org/2000/svg">
<path fill="#000000" opacity="1.00" d=" M 331.07 0.00 L 331.93 0.00 C 368.32 65.29 407.56 129.62 444.77 193.94 C 520.49 318.98 589.35 448.16 663.00 574.21 L 663.00 575.13 C 564.10 576.14 465.10 574.68 366.30 578.00 L 296.66 578.00 C 197.84 574.71 98.88 576.15 0.00 575.14 L 0.00 574.22 C 73.65 448.16 142.51 318.98 218.23 193.94 C 255.44 129.62 294.68 65.29 331.07 0.00 M 331.32 13.35 C 286.90 87.49 243.11 162.50 198.75 236.77 C 134.10 346.36 73.12 458.98 10.07 569.22 C 87.94 568.93 165.73 571.41 243.73 571.14 C 379.83 574.30 516.34 568.66 652.82 569.34 C 601.84 478.40 549.77 386.49 498.69 295.37 C 443.16 201.75 387.09 105.45 331.32 13.35 Z" />
<path fill="#000000" opacity="1.00" d=" M 331.14 18.29 C 439.48 198.42 546.47 381.11 646.80 566.20 C 436.59 569.58 226.49 570.04 16.23 566.03 C 67.83 469.61 122.95 376.04 176.07 280.09 C 228.65 192.14 279.17 106.59 331.14 18.29 M 331.28 26.33 C 306.77 71.51 277.86 114.65 253.24 160.24 C 171.94 291.28 98.97 428.02 22.95 561.85 C 157.64 561.72 292.82 567.71 427.74 563.78 C 498.41 563.44 569.46 562.02 640.00 561.93 C 590.66 472.69 538.81 382.81 489.20 292.85 C 436.41 204.38 382.60 113.95 331.28 26.33 Z" />
<path fill="#000000" opacity="1.00" d=" M 331.11 62.15 C 425.07 221.18 519.18 382.07 608.91 544.00 C 423.94 545.94 239.04 546.17 54.09 543.98 C 110.06 445.41 164.37 346.13 222.49 248.51 C 257.77 186.21 296.74 125.07 331.11 62.15 M 331.14 72.30 C 239.42 226.65 148.70 381.77 62.17 539.13 C 241.76 542.47 421.22 541.70 600.78 539.42 C 514.32 382.07 423.73 225.51 331.14 72.30 Z" />
<path fill="#000000" opacity="1.00" d=" M 331.18 76.33 C 421.95 227.88 512.05 382.12 596.84 537.24 C 419.86 539.51 243.16 540.16 66.18 537.02 C 150.93 381.78 241.14 228.93 331.18 76.33 M 331.32 85.35 C 242.55 232.86 155.72 382.28 73.15 533.16 C 245.37 535.87 417.60 535.62 589.85 533.16 C 507.27 382.48 419.90 231.24 331.32 85.35 Z" />
<path fill="#000000" opacity="1.00" d=" M 315.07 137.21 C 321.08 142.24 316.18 158.25 328.10 160.43 C 340.08 163.56 346.32 149.64 345.27 139.52 C 351.49 130.35 346.97 154.48 352.91 142.88 C 357.39 135.44 358.85 145.00 355.85 147.93 C 351.65 156.77 361.80 150.22 366.04 152.89 C 363.42 161.37 348.65 155.40 346.15 164.63 C 357.78 168.58 371.98 175.72 378.40 187.62 C 380.49 190.39 374.61 192.36 373.78 189.38 C 367.41 180.54 355.87 179.12 346.90 174.40 C 344.68 177.34 354.29 183.57 349.30 186.95 C 345.99 181.95 336.96 176.53 332.48 177.48 C 339.72 185.99 322.90 186.22 330.50 177.50 C 325.83 176.35 317.69 182.44 313.69 186.77 C 308.66 183.86 318.34 177.20 316.10 174.40 C 307.08 179.00 295.83 180.70 289.26 189.30 C 287.76 192.49 282.13 190.00 284.90 186.95 C 292.05 176.13 304.02 167.91 316.77 165.30 C 316.40 155.62 296.73 160.96 297.82 152.67 C 312.94 156.61 303.32 146.24 307.05 140.14 C 314.88 150.70 312.40 143.85 315.07 137.21 M 314.93 155.15 C 316.85 163.25 323.18 157.60 314.93 155.15 M 346.55 155.38 C 337.79 162.27 351.21 158.33 346.55 155.38 M 320.86 161.23 C 327.94 171.54 308.88 167.61 306.43 174.02 C 315.36 171.17 324.65 170.87 333.46 173.51 C 340.68 169.14 349.07 172.72 356.57 174.02 C 354.09 167.60 335.15 171.56 342.08 161.24 C 335.77 165.11 327.11 165.03 320.86 161.23 Z" />
<path fill="#000000" opacity="1.00" d=" M 331.11 166.52 C 345.72 169.63 318.28 171.09 331.11 166.52 Z" />
<path fill="#000000" opacity="1.00" d=" M 299.37 198.55 C 312.74 196.24 321.77 210.98 332.28 215.19 C 336.57 206.79 348.35 208.39 351.71 199.24 C 357.96 198.31 366.01 196.72 370.41 202.58 C 375.88 210.79 389.67 206.61 393.05 217.01 C 394.56 225.20 408.60 228.89 405.95 237.86 C 397.62 242.24 400.25 253.73 401.97 260.97 C 404.40 258.94 409.19 245.91 413.77 252.10 C 408.57 259.01 424.24 259.06 418.35 264.19 C 409.89 262.33 405.48 273.16 397.75 271.89 C 392.85 281.91 376.12 285.24 370.43 274.42 C 364.81 269.22 357.40 273.91 357.77 280.95 C 345.45 286.19 335.15 272.54 331.14 263.40 C 328.17 273.84 316.52 285.89 305.12 280.88 C 306.20 270.65 293.02 270.02 289.94 277.97 C 282.05 284.23 269.85 280.56 265.25 271.89 C 257.52 273.16 253.11 262.33 244.65 264.19 C 238.76 259.06 254.43 259.01 249.23 252.10 C 253.88 245.90 258.52 259.01 261.13 260.97 C 264.62 251.09 262.72 241.90 256.17 235.07 C 265.26 224.18 271.35 207.83 287.68 206.86 C 291.89 204.60 294.17 198.97 299.37 198.55 M 310.00 206.23 C 309.86 210.67 315.40 212.68 318.84 214.14 C 316.63 211.16 312.77 208.13 310.00 206.23 M 351.50 206.34 C 350.45 210.30 345.38 210.61 344.16 214.14 C 347.27 213.52 355.99 208.04 351.50 206.34 M 301.30 207.34 C 294.59 212.11 285.35 215.47 283.25 224.32 C 277.01 225.85 283.11 216.87 283.94 213.96 C 277.75 215.25 275.76 223.04 270.31 224.84 C 274.81 225.49 277.60 233.06 283.96 232.96 C 277.12 245.50 272.36 222.92 264.10 231.05 C 257.08 235.10 269.01 240.08 266.42 246.44 C 266.88 238.51 278.20 238.95 271.50 246.52 C 263.93 246.94 263.34 258.85 267.00 265.05 C 269.33 263.69 263.98 252.84 270.83 253.23 C 268.40 264.20 276.95 275.19 287.60 275.54 C 287.53 270.56 276.89 273.13 276.13 266.22 C 276.10 255.46 281.28 270.17 286.15 269.70 C 285.52 263.65 278.59 259.22 280.46 252.65 C 284.96 251.85 282.32 260.44 286.24 258.29 C 290.01 252.64 292.03 261.73 295.43 263.67 C 298.36 280.53 298.57 245.58 309.99 250.77 C 311.90 257.60 305.40 264.07 302.24 269.04 C 308.96 268.91 309.69 258.01 316.26 259.39 C 316.00 262.86 312.24 264.55 311.97 267.85 C 319.92 266.05 315.89 252.78 323.98 252.08 C 319.09 247.78 327.02 239.27 331.16 245.58 C 335.61 239.81 343.98 246.98 339.01 252.11 C 347.65 252.24 342.81 266.17 351.03 267.84 C 350.75 264.55 347.00 262.85 346.74 259.39 C 353.30 258.01 354.04 268.91 360.76 269.04 C 357.65 263.98 350.30 256.93 353.45 250.14 C 359.58 250.98 365.66 259.86 364.32 266.29 C 367.15 276.38 369.57 250.19 376.76 258.29 C 380.68 260.44 378.03 251.85 382.54 252.65 C 384.41 259.22 377.48 263.64 376.85 269.69 C 381.68 269.77 382.38 261.58 386.86 262.50 C 389.68 271.45 376.17 270.51 375.41 275.53 C 386.06 275.20 394.59 264.19 392.17 253.23 C 398.38 253.42 394.72 261.54 395.34 265.46 C 400.42 260.56 399.36 246.30 391.99 247.06 C 384.28 240.69 395.75 236.85 396.00 245.97 C 395.66 243.29 399.95 236.56 401.43 233.52 C 394.07 220.27 386.07 245.56 379.03 232.96 C 385.39 233.06 388.19 225.48 392.69 224.84 C 387.24 223.04 385.24 215.25 379.06 213.96 C 379.89 216.87 385.98 225.85 379.75 224.32 C 377.49 215.31 368.03 211.69 360.99 207.05 C 363.06 209.89 361.34 217.09 357.93 212.09 C 347.86 206.47 343.02 237.54 339.17 221.14 C 335.53 226.60 336.60 241.96 345.92 235.00 C 354.32 232.89 344.82 223.36 349.96 218.93 C 359.24 213.29 377.39 213.04 373.53 229.06 C 382.33 233.82 368.00 233.34 371.35 240.36 C 364.41 239.26 368.84 249.30 362.30 249.01 C 358.51 246.69 360.43 241.54 359.86 238.06 C 356.03 227.93 366.57 237.66 367.99 232.03 C 368.63 227.90 369.80 222.77 367.45 219.16 C 360.85 218.24 349.42 220.41 354.24 229.41 C 357.29 237.77 345.14 236.28 344.99 242.73 C 348.66 240.18 352.17 246.10 348.09 247.56 C 340.35 248.34 338.39 237.60 331.85 235.36 C 324.65 236.63 322.95 248.49 314.91 247.56 C 310.83 246.10 314.33 240.18 318.01 242.73 C 318.58 238.52 313.42 237.76 310.52 236.47 C 306.78 232.56 309.85 227.12 309.65 222.56 C 303.51 216.84 289.69 217.70 294.49 229.27 C 293.05 237.88 305.19 229.39 303.10 236.93 C 302.92 240.10 304.65 250.69 298.56 248.49 C 293.86 242.13 292.62 236.15 286.10 232.22 C 293.43 229.23 286.61 215.46 296.17 215.58 C 303.13 216.23 318.37 215.19 314.00 227.01 C 310.55 232.94 317.38 235.82 321.91 237.01 C 327.79 234.38 325.93 225.94 323.83 221.14 C 319.81 238.29 315.12 204.37 304.58 212.63 C 299.92 217.39 301.86 207.37 301.30 207.34 M 321.32 262.22 C 319.79 266.17 315.78 268.46 314.08 272.02 C 318.37 271.71 322.55 264.81 321.32 262.22 M 340.95 262.17 C 341.86 266.30 344.31 271.29 348.92 272.02 C 346.83 268.62 343.39 265.02 340.95 262.17 M 267.86 267.22 C 268.90 272.88 274.60 276.96 280.15 277.64 C 275.96 274.49 271.26 271.00 267.86 267.22 M 394.39 267.32 C 391.97 272.19 386.31 274.01 382.86 277.68 C 388.00 277.09 395.93 271.68 394.39 267.32 M 322.45 270.40 C 318.03 272.54 311.29 281.15 308.98 272.93 C 304.69 283.67 324.04 274.82 322.45 270.40 M 339.92 270.06 C 340.85 276.63 357.56 282.69 354.02 272.91 C 351.55 281.40 344.60 272.00 339.92 270.06 Z" />
<path fill="#000000" opacity="1.00" d=" M 282.47 237.30 C 286.47 237.67 285.96 252.07 278.58 246.32 C 275.93 242.13 278.85 238.70 282.47 237.30 Z" />
<path fill="#000000" opacity="1.00" d=" M 379.08 237.18 C 383.55 236.81 387.84 243.66 383.67 246.79 C 376.36 249.78 378.20 240.89 379.08 237.18 Z" />
<path fill="#000000" opacity="1.00" d=" M 297.19 274.22 C 299.99 274.40 302.42 276.24 302.67 279.17 C 299.59 292.34 289.30 302.80 277.89 309.58 C 287.71 311.34 294.93 303.27 302.02 297.95 C 309.36 301.13 298.21 304.12 298.86 308.74 C 312.58 305.73 319.27 292.49 328.05 284.09 C 327.65 292.16 335.73 288.24 335.69 284.24 C 342.71 294.27 351.65 304.68 364.14 308.74 C 364.80 304.14 353.63 301.13 360.97 297.95 C 368.04 303.27 375.56 311.54 385.16 309.42 C 374.37 303.32 365.05 293.91 361.06 281.97 C 357.64 277.17 366.26 270.54 368.88 277.17 C 376.80 289.12 386.51 302.11 401.78 304.09 C 395.73 290.17 413.24 303.26 420.60 302.73 C 426.93 302.13 430.39 290.21 420.60 293.53 C 413.66 295.09 416.07 284.92 420.90 283.90 C 433.20 280.17 444.86 295.66 437.63 306.60 C 431.02 323.01 410.27 323.17 401.59 337.81 C 395.83 338.93 399.27 332.82 400.14 330.09 C 390.08 333.16 379.50 334.94 371.77 342.87 C 365.37 341.67 373.75 335.76 375.17 332.95 C 347.25 333.97 319.30 331.62 291.33 333.75 C 281.71 330.72 300.11 341.98 291.23 342.86 C 283.55 334.86 272.78 333.69 262.89 330.09 C 263.21 332.73 267.35 337.86 262.18 337.97 C 251.57 322.12 218.55 318.94 224.49 293.58 C 226.27 284.09 244.09 278.07 246.91 290.09 C 247.21 297.92 234.25 288.94 236.16 297.64 C 241.33 312.64 267.85 286.80 261.22 304.07 C 278.34 302.15 287.07 285.99 297.19 274.22 M 296.39 280.39 C 291.23 292.03 280.43 299.25 271.03 307.04 C 280.69 306.73 298.75 288.79 296.39 280.39 M 365.17 279.88 C 368.36 292.54 379.86 304.50 392.32 307.55 C 381.87 299.92 372.47 290.08 365.17 279.88 M 233.65 288.41 C 224.26 288.92 228.22 309.87 235.53 305.67 C 251.04 318.75 273.36 318.59 292.33 315.44 C 307.83 317.54 320.52 307.12 331.17 297.33 C 340.08 303.88 348.52 312.79 360.07 315.06 C 382.30 316.68 408.80 321.63 427.47 305.67 C 437.37 309.67 437.88 281.64 424.08 288.51 C 437.86 291.94 427.64 308.07 417.65 308.69 C 413.44 311.19 411.28 299.80 408.04 305.84 C 413.29 312.28 401.19 310.78 397.14 309.32 C 395.18 320.02 377.87 310.71 369.92 313.81 C 356.57 309.62 341.80 304.27 331.86 294.03 C 318.15 304.67 300.76 315.65 282.01 313.95 C 277.48 313.95 265.24 317.56 266.56 309.19 C 262.55 309.99 254.80 312.50 253.39 308.41 C 258.02 302.74 248.95 303.58 248.50 308.71 C 240.95 308.58 229.63 302.20 232.21 292.80 C 234.77 290.26 244.21 286.34 233.65 288.41 M 330.43 302.30 C 322.87 309.10 342.66 304.23 330.43 302.30 M 331.16 308.46 C 325.99 312.42 317.50 311.03 313.57 316.60 C 325.71 313.68 337.28 313.68 349.43 316.60 C 345.22 311.20 336.75 311.68 331.16 308.46 M 308.36 316.48 C 293.83 322.56 276.12 318.73 262.82 320.95 C 276.27 324.67 297.99 320.21 311.93 323.92 C 301.87 329.02 287.40 325.30 275.71 326.53 C 273.44 328.64 276.92 330.28 278.86 329.78 C 314.39 327.65 349.31 328.05 384.91 329.82 C 387.36 330.29 389.57 327.29 386.62 326.21 C 374.78 326.49 362.80 327.30 351.10 324.88 C 351.28 319.23 359.46 323.32 363.44 322.53 C 374.89 322.73 390.92 322.79 400.18 320.96 C 386.87 319.05 368.69 322.25 353.98 316.25 C 351.95 324.57 342.59 317.25 336.96 318.19 C 328.06 314.03 313.57 325.96 308.36 316.48 M 255.72 323.11 C 259.75 329.12 264.44 323.83 255.72 323.11 M 406.48 323.32 C 396.32 325.29 406.98 327.56 406.48 323.32 Z" />
<path fill="#000000" opacity="1.00" d=" M 330.39 318.20 C 342.56 319.50 322.84 325.03 330.39 318.20 Z" />
<path fill="#000000" opacity="1.00" d=" M 208.66 330.40 C 227.64 325.62 239.11 346.01 257.40 345.50 C 260.10 349.92 254.05 350.39 250.96 350.89 C 259.03 357.30 265.55 367.05 276.76 368.37 C 278.79 374.84 269.67 371.05 266.13 370.79 C 272.04 379.51 277.99 388.47 281.48 398.51 C 288.42 416.13 304.11 428.90 309.75 447.17 C 311.38 444.07 311.22 435.57 316.72 437.32 C 315.34 446.54 314.68 455.71 318.42 464.60 C 318.06 476.67 324.75 459.13 326.99 466.84 C 318.67 483.76 330.53 507.99 311.66 520.07 C 300.16 530.12 279.95 505.22 296.61 503.21 C 296.73 510.34 307.77 513.32 306.07 503.08 C 307.74 494.66 280.78 486.37 297.96 484.03 C 288.59 472.16 272.53 469.66 258.22 469.06 C 253.59 470.58 250.75 462.56 255.09 461.03 C 268.19 456.04 282.35 460.53 294.22 466.72 C 290.86 457.99 280.22 455.12 272.16 451.69 C 270.93 443.94 280.73 452.07 282.75 449.22 C 274.33 439.37 257.52 439.36 247.05 436.13 C 253.80 432.83 250.28 427.34 243.48 430.77 C 245.64 418.47 255.01 407.08 250.98 393.20 C 245.11 391.88 250.36 404.96 243.63 401.40 C 241.95 392.93 248.71 380.24 240.16 373.97 C 241.44 387.59 236.30 402.76 225.41 411.45 C 219.20 413.30 219.24 404.35 221.75 400.81 C 228.67 389.72 231.78 376.44 228.47 363.66 C 225.44 360.37 223.38 371.09 221.69 365.26 C 221.12 356.92 217.92 338.12 206.52 346.44 C 207.30 350.45 213.82 358.25 204.41 357.41 C 190.84 353.50 195.77 331.73 208.66 330.40 M 214.14 335.41 C 208.17 336.24 196.54 338.46 200.44 347.44 C 199.70 350.03 203.24 352.83 203.01 348.96 C 200.04 334.71 221.58 340.02 224.89 348.16 C 224.48 350.62 221.04 356.21 225.79 355.87 C 229.71 348.78 233.51 359.40 234.23 363.64 C 243.23 361.19 245.36 373.92 248.16 380.10 C 256.85 388.18 254.77 400.90 254.66 411.51 C 258.89 419.54 247.64 432.75 263.51 431.26 C 272.13 440.38 288.31 442.37 292.00 455.93 C 295.30 462.11 307.84 470.73 299.98 477.02 C 303.03 479.74 311.56 490.82 301.96 488.41 C 300.93 492.16 305.01 493.74 307.92 492.21 C 316.30 500.98 306.69 523.01 294.85 511.06 C 297.73 522.55 312.27 516.82 315.06 508.01 C 312.11 506.67 310.66 504.25 312.60 500.61 C 314.32 478.20 298.44 460.43 287.00 443.03 C 279.14 434.07 267.59 430.21 256.50 426.91 C 260.00 412.96 262.49 395.47 252.76 383.11 C 245.90 364.83 234.77 345.53 215.12 339.00 C 214.98 337.59 216.85 334.34 214.14 335.41 M 242.04 347.83 C 244.52 355.21 249.87 349.49 242.04 347.83 M 243.03 355.08 C 240.55 359.74 247.13 362.55 248.95 366.05 C 255.28 375.60 259.41 386.51 262.29 397.48 C 269.66 395.20 268.44 405.53 272.24 409.50 C 270.06 420.44 291.77 427.23 284.51 436.48 C 296.98 446.08 303.57 461.76 310.95 474.08 C 307.73 461.08 297.40 446.19 289.42 433.38 C 287.90 431.31 289.90 428.74 291.80 431.11 C 298.54 439.47 304.08 448.87 308.38 458.72 C 309.34 460.94 313.03 460.02 311.95 457.43 C 292.07 427.17 274.50 396.07 258.22 363.87 C 256.67 361.78 253.98 361.68 254.25 364.83 C 260.60 374.12 266.53 383.87 270.50 394.39 C 271.89 397.65 267.83 397.27 267.00 394.95 C 260.63 380.77 252.18 367.55 243.03 355.08 M 235.26 369.55 C 232.50 381.72 231.44 394.50 224.77 405.60 C 234.27 398.07 239.03 379.86 235.26 369.55 M 263.80 402.22 C 263.58 415.52 268.25 428.10 282.07 432.85 C 280.26 425.24 270.58 422.68 269.11 414.85 C 267.42 410.96 268.73 403.89 263.80 402.22 M 262.32 418.88 C 259.48 421.79 261.54 426.60 265.90 426.04 C 265.10 423.47 262.63 421.80 262.32 418.88 M 262.56 463.47 C 250.71 465.13 270.58 467.39 273.38 466.48 C 281.07 465.55 289.65 475.25 295.56 473.39 C 287.64 465.52 273.83 462.53 262.56 463.47 M 315.97 472.23 C 315.06 481.95 321.07 476.49 315.97 472.23 Z" />
<path fill="#000000" opacity="1.00" d=" M 444.60 330.37 C 457.73 325.37 472.08 340.44 464.93 352.74 C 463.52 358.13 451.52 359.89 453.31 352.58 C 458.55 350.04 456.97 340.99 449.85 344.58 C 438.75 345.96 446.36 375.03 435.90 363.06 C 429.13 375.33 435.62 391.24 442.03 403.21 C 445.46 406.94 440.67 414.75 436.37 410.69 C 426.48 401.57 421.77 387.24 422.83 374.01 C 414.46 380.28 420.63 392.93 419.35 401.39 C 412.64 404.98 417.86 391.68 412.00 393.26 C 410.40 405.61 413.43 417.67 419.56 428.16 C 420.88 433.66 414.76 427.07 412.66 430.57 C 407.63 432.72 419.30 434.52 415.09 437.18 C 402.69 437.65 390.25 440.83 380.26 448.44 C 380.79 453.50 391.15 443.65 390.95 450.89 C 384.39 455.75 371.70 457.36 368.77 466.71 C 381.06 460.70 397.19 454.82 409.81 462.48 C 411.88 470.29 401.03 469.63 395.99 470.13 C 384.34 469.16 374.23 475.64 365.61 482.63 C 363.30 486.35 374.97 483.87 370.79 487.82 C 365.31 493.11 352.68 499.50 358.12 508.86 C 365.20 515.21 365.23 496.09 371.79 505.40 C 377.87 522.69 348.82 527.71 343.81 512.10 C 334.92 498.10 344.14 481.02 335.99 466.76 C 337.33 461.72 341.45 467.97 343.09 468.88 C 346.83 459.58 348.89 447.82 346.31 437.26 C 351.83 435.75 351.56 444.03 353.21 447.17 C 358.94 428.91 374.55 416.13 381.52 398.51 C 385.05 388.50 390.70 379.39 396.85 370.83 C 392.99 370.76 384.21 374.97 386.25 368.39 C 397.45 367.03 403.96 357.30 412.05 350.89 C 409.07 350.49 402.62 349.74 405.78 345.60 C 420.80 346.08 430.39 331.98 444.60 330.37 M 448.16 335.26 C 445.76 335.21 450.24 340.56 445.86 339.99 C 423.06 347.76 415.88 372.61 405.20 391.43 C 402.03 403.07 403.58 415.47 406.57 426.92 C 391.87 430.71 375.81 437.64 369.80 452.77 C 358.94 466.61 348.03 483.67 350.77 502.10 C 341.75 511.06 364.33 526.10 368.16 511.05 C 356.37 522.98 346.40 501.02 355.09 492.20 C 357.99 493.75 362.05 492.16 361.04 488.41 C 351.87 491.06 359.15 479.87 362.74 477.68 C 355.21 469.13 370.61 460.87 372.73 451.80 C 381.43 440.26 397.66 434.39 408.61 427.96 C 408.89 411.85 403.76 392.29 415.35 378.85 C 418.40 373.47 419.95 360.70 428.77 363.64 C 429.83 355.75 433.95 352.45 439.70 355.20 C 433.75 343.93 451.42 336.09 459.93 342.42 C 459.73 345.71 460.28 355.19 462.55 348.40 C 466.62 338.81 455.00 335.73 448.16 335.26 M 419.46 348.31 C 410.76 353.73 423.89 350.41 419.46 348.31 M 419.40 355.52 C 411.03 368.00 402.25 380.39 396.36 394.30 C 395.88 396.83 391.07 398.17 392.50 394.39 C 396.46 383.88 402.52 374.18 408.76 364.83 C 408.28 359.05 403.16 364.96 403.21 368.10 C 392.55 383.42 386.35 401.03 377.04 417.02 C 366.18 428.95 360.13 444.24 351.03 457.33 C 350.13 459.53 352.69 460.92 354.17 459.38 C 359.49 449.18 364.60 436.21 373.86 430.33 C 368.34 444.74 355.08 460.10 351.99 474.05 C 360.05 462.18 366.18 445.62 378.99 435.98 C 372.10 432.20 381.98 425.70 383.91 421.93 C 394.22 417.20 389.56 397.14 400.97 396.81 C 404.62 382.99 410.10 368.85 420.40 358.45 C 421.10 357.82 420.35 354.44 419.40 355.52 M 427.13 369.25 C 424.78 381.79 428.79 396.19 437.49 405.51 C 439.46 401.88 432.41 395.68 431.81 391.12 C 427.79 384.48 432.05 375.11 427.13 369.25 M 398.42 402.17 C 393.94 413.39 389.96 424.14 380.93 432.82 C 394.21 428.23 400.52 414.88 398.42 402.17 M 400.41 419.55 C 400.77 422.09 394.18 427.04 399.40 425.49 C 403.05 426.23 402.23 418.28 400.41 419.55 M 394.37 463.38 C 385.36 464.21 372.44 466.43 367.31 474.17 C 378.88 470.68 389.48 463.36 402.42 465.57 C 409.80 464.22 395.97 462.08 394.37 463.38 M 346.20 471.94 C 341.99 480.43 349.36 478.49 346.20 471.94 Z" />
<path fill="#000000" opacity="1.00" d=" M 249.60 336.24 C 260.82 341.22 271.91 345.82 283.72 349.25 C 289.74 354.15 282.67 362.97 276.61 358.39 C 269.43 349.06 258.23 343.95 249.60 336.24 Z" />
<path fill="#000000" opacity="1.00" d=" M 412.47 336.43 C 407.25 342.10 393.54 348.71 387.45 357.44 C 382.87 363.04 373.21 356.58 378.28 350.33 C 389.45 345.98 401.39 341.77 412.47 336.43 Z" />
<path fill="#000000" opacity="1.00" d=" M 309.70 341.44 C 329.17 342.45 352.43 335.36 368.87 349.15 C 372.79 352.46 368.26 358.27 371.11 361.86 C 385.82 364.70 380.61 384.13 375.32 393.34 C 365.77 406.34 361.48 424.68 345.66 431.84 C 337.02 437.05 331.33 421.75 324.31 432.97 C 304.57 431.74 298.45 408.94 288.91 395.13 C 281.76 384.82 277.39 364.71 292.84 360.57 C 288.57 348.92 300.70 343.93 309.70 341.44 M 297.48 351.35 C 294.26 354.62 298.51 359.42 297.16 363.26 C 294.16 366.67 286.82 366.06 286.74 371.77 C 291.63 369.00 295.42 369.63 292.97 375.82 C 298.97 371.17 301.48 360.98 306.55 354.95 C 305.64 352.67 302.80 356.43 301.70 357.62 C 297.50 357.77 301.69 348.84 297.48 351.35 M 363.52 350.67 C 364.65 357.99 360.86 357.81 356.38 354.27 C 360.47 361.01 364.55 368.63 368.43 375.71 C 372.45 376.45 366.24 367.07 372.47 370.42 C 379.32 374.28 374.51 365.67 370.11 365.83 C 360.50 365.00 371.78 352.46 363.52 350.67 M 312.01 352.49 C 305.12 353.31 315.72 359.16 317.95 359.17 C 317.17 365.03 306.85 360.92 303.89 365.94 C 299.94 371.66 304.39 378.30 305.76 384.21 C 301.71 382.57 298.64 379.81 294.15 378.94 C 294.98 382.00 296.16 388.84 300.00 384.13 C 307.44 391.75 314.07 399.73 314.77 410.88 C 307.41 408.41 314.24 415.08 316.22 417.76 C 320.66 414.40 315.99 409.73 318.00 406.04 C 322.85 407.96 324.07 415.88 330.16 415.96 C 337.74 417.73 339.70 408.52 345.01 406.04 C 347.00 409.74 342.35 414.40 346.78 417.76 C 348.58 415.26 350.98 413.14 352.18 410.25 C 345.87 412.87 349.00 406.57 350.53 403.34 C 350.13 394.31 358.98 390.86 363.00 384.13 C 366.84 388.84 368.02 382.00 368.85 378.94 C 364.35 379.80 361.29 382.59 357.24 384.19 C 361.58 376.06 362.93 362.90 350.77 362.12 C 333.61 361.95 364.06 352.60 348.35 352.24 C 343.81 359.90 325.15 360.42 316.42 354.95 C 317.85 351.47 314.33 352.13 312.01 352.49 M 325.17 418.36 C 317.50 420.84 320.38 418.90 323.95 424.73 C 314.90 427.97 323.77 431.50 328.13 425.10 C 333.58 419.07 338.09 432.34 343.90 428.08 C 343.55 425.67 338.02 426.45 339.07 423.15 C 351.11 416.39 330.46 421.25 325.17 418.36 Z" />
<path fill="#000000" opacity="1.00" d=" M 314.52 364.45 C 317.77 363.54 326.26 364.46 324.69 369.62 C 319.52 369.80 312.49 365.24 308.83 370.89 C 305.40 377.12 319.76 381.57 313.85 385.90 C 303.73 383.50 301.25 363.91 314.52 364.45 Z" />
<path fill="#000000" opacity="1.00" d=" M 343.57 364.41 C 358.85 359.88 362.22 380.86 349.86 385.90 C 342.02 382.91 358.00 377.11 354.16 370.87 C 350.48 365.34 343.36 369.56 338.34 369.61 C 336.82 366.35 340.97 364.64 343.57 364.41 Z" />
<path fill="#000000" opacity="1.00" d=" M 182.25 367.14 C 190.94 380.41 217.62 379.15 219.64 398.77 C 213.86 406.42 220.96 418.16 230.42 412.14 C 239.45 420.86 234.37 435.83 227.02 444.03 C 237.78 440.90 255.38 445.23 255.52 458.30 C 246.93 462.78 253.21 474.46 262.17 472.60 C 279.69 483.11 261.27 504.95 272.01 519.17 C 268.40 525.24 262.43 511.87 259.28 520.39 C 252.00 520.27 259.16 509.48 260.75 505.80 C 252.77 508.66 242.04 511.68 241.84 521.91 C 227.81 521.59 208.86 523.21 199.44 509.25 C 176.54 506.60 183.79 482.11 185.57 467.16 C 176.67 467.99 172.57 456.99 163.35 458.99 C 157.86 454.01 150.95 445.14 156.57 437.36 C 156.85 429.20 150.54 420.02 156.83 412.83 C 162.32 407.06 159.84 397.77 165.69 392.34 C 173.93 395.38 181.70 391.82 187.90 386.03 C 195.52 378.88 171.74 387.23 176.62 377.58 C 184.43 378.31 179.93 370.90 182.25 367.14 M 199.72 386.44 C 199.65 387.72 210.06 388.85 213.89 392.15 C 211.17 387.55 204.87 385.12 199.72 386.44 M 192.55 387.41 C 188.07 388.30 183.88 391.71 182.16 395.91 C 186.68 400.05 177.82 409.41 176.18 401.17 C 185.59 393.41 171.91 399.18 166.54 397.71 C 158.55 412.22 183.49 405.25 178.61 418.46 C 174.57 413.35 168.71 412.41 163.11 410.30 C 164.08 416.13 159.80 421.21 160.23 427.04 C 163.60 425.86 167.10 415.23 169.62 420.80 C 163.91 426.80 159.69 447.48 170.44 443.32 C 166.18 459.43 200.58 446.14 187.14 458.24 C 192.44 456.99 200.58 455.50 199.80 448.35 C 196.05 443.30 188.78 441.36 186.06 448.15 C 177.80 454.06 171.35 442.14 167.89 436.06 C 164.84 427.63 178.88 427.82 178.05 420.18 C 181.30 422.68 184.50 423.36 187.99 419.96 C 189.34 426.87 194.27 420.68 198.36 422.67 C 201.13 428.64 190.79 432.56 186.53 432.53 C 184.92 423.06 174.85 429.90 171.17 434.11 C 173.18 438.79 176.36 444.13 181.85 445.02 C 185.76 443.13 188.67 437.80 193.47 438.53 C 195.70 439.81 200.97 445.64 202.68 441.32 C 196.55 440.10 205.21 432.67 206.48 438.75 C 206.86 443.62 205.44 448.92 203.05 453.27 C 200.63 465.80 223.14 456.12 221.82 467.78 C 218.64 473.04 215.35 461.96 214.16 468.20 C 218.38 477.03 209.73 480.48 203.12 482.42 C 202.08 487.78 204.35 492.88 207.34 497.20 C 213.38 495.80 224.62 490.07 216.27 483.81 C 219.12 481.41 225.38 475.60 230.34 477.66 C 234.34 482.95 221.91 484.11 227.96 489.00 C 224.27 491.25 222.00 493.91 223.70 498.51 C 217.90 495.32 212.76 501.13 206.57 500.74 C 198.42 494.86 192.56 474.87 208.82 475.73 C 218.09 461.74 197.44 460.27 195.07 472.12 C 211.73 464.70 183.62 488.21 197.86 492.08 C 201.84 494.85 195.18 496.11 193.95 498.05 C 202.43 501.00 209.83 507.39 219.41 505.44 C 220.78 510.00 210.28 508.30 207.80 509.63 C 212.82 513.71 219.81 512.39 224.95 516.05 C 223.56 510.45 227.06 505.06 224.83 499.24 C 239.06 500.44 222.33 515.00 233.76 518.46 C 239.92 521.21 238.72 511.23 243.36 509.42 C 247.66 505.37 236.75 512.12 236.97 506.85 C 235.02 500.84 247.76 502.42 245.53 507.30 C 251.49 506.54 258.83 504.28 261.14 498.12 C 257.42 499.14 252.07 506.06 249.04 501.15 C 258.86 498.82 268.28 479.84 258.09 475.95 C 260.67 480.99 260.56 491.66 253.46 491.72 C 252.90 487.70 256.39 484.31 255.95 480.27 C 249.72 480.74 251.13 493.68 243.35 492.62 C 242.17 489.81 246.16 488.06 247.08 485.75 C 232.83 483.20 256.59 473.49 248.10 468.68 C 242.99 475.88 234.35 472.00 227.33 471.33 C 227.39 463.07 241.57 464.49 247.17 467.03 C 246.03 460.79 235.96 464.06 232.57 460.54 C 230.65 455.52 243.83 461.24 239.92 457.06 C 233.83 453.48 225.63 462.21 222.03 456.22 C 214.40 467.52 199.98 442.03 214.00 442.70 C 210.48 435.33 222.92 432.96 221.93 425.05 C 218.91 425.87 219.70 431.18 215.86 431.93 C 213.13 426.53 221.34 419.30 217.25 415.19 C 215.59 420.58 212.49 431.16 204.50 430.82 C 202.78 424.88 207.98 414.66 215.27 413.31 C 217.34 404.65 200.88 417.00 199.68 408.73 C 204.42 400.53 192.85 410.82 193.05 404.04 C 197.96 400.76 204.29 401.52 209.91 401.95 C 210.50 396.66 194.19 400.29 200.76 394.69 C 207.30 389.66 212.94 403.29 215.70 398.80 C 210.60 391.19 196.91 387.49 189.51 395.80 C 181.43 392.35 205.45 385.80 192.55 387.41 M 226.34 417.21 C 225.46 417.09 224.09 420.28 225.60 419.53 C 233.03 417.49 228.65 428.28 228.96 432.66 C 232.89 429.07 233.72 416.74 226.34 417.21 M 225.21 424.65 C 225.07 428.94 222.92 432.56 221.05 436.25 C 224.68 434.87 228.83 425.05 225.21 424.65 M 236.92 446.95 C 240.19 450.78 250.20 450.12 248.64 456.45 C 242.52 458.42 252.13 459.26 250.97 455.18 C 249.75 448.83 241.98 448.09 236.92 446.95 M 235.21 451.47 C 225.21 453.26 241.78 453.07 245.09 456.17 C 243.54 452.36 238.84 451.55 235.21 451.47 M 169.12 452.25 C 162.81 455.95 175.72 455.26 178.29 457.85 C 177.12 453.98 172.22 453.81 169.12 452.25 M 190.14 479.30 C 189.61 483.31 189.69 487.45 187.80 491.16 C 192.65 490.43 193.44 479.83 190.14 479.30 M 264.97 481.34 C 265.71 487.08 264.42 492.19 261.79 497.13 C 267.27 494.67 268.21 484.48 264.97 481.34 Z" />
<path fill="#000000" opacity="1.00" d=" M 478.39 367.22 C 485.96 365.70 476.88 378.94 485.59 377.37 C 491.29 383.51 476.50 383.74 473.26 382.84 C 477.24 391.44 489.26 395.10 497.89 392.86 C 501.31 407.13 514.46 419.83 506.33 435.46 C 510.12 443.69 507.84 452.36 500.99 458.38 C 491.32 456.58 486.70 467.81 477.41 467.11 C 480.77 475.34 475.60 484.91 480.98 492.25 C 479.21 508.55 460.93 508.63 451.93 519.11 C 441.73 518.12 430.61 524.68 421.11 521.87 C 420.97 511.62 410.17 508.69 402.24 505.78 C 404.19 509.10 410.86 522.56 403.21 519.83 C 400.14 512.17 394.35 525.49 390.99 519.17 C 401.58 504.93 383.81 484.11 400.13 472.87 C 409.14 474.79 416.46 463.11 407.48 458.29 C 407.06 445.36 425.75 440.83 436.00 444.04 C 426.76 436.77 422.22 407.36 440.00 413.81 C 445.13 412.13 447.19 404.92 443.88 400.60 C 441.32 390.87 451.45 381.84 460.79 381.85 C 464.88 374.59 476.45 376.48 478.39 367.22 M 457.73 386.44 C 454.08 385.96 445.20 394.56 452.54 390.61 C 456.34 386.27 471.85 387.19 457.73 386.44 M 466.48 386.90 C 466.71 389.18 479.46 392.67 473.51 395.75 C 466.56 387.94 448.18 391.00 448.06 400.80 C 451.95 397.14 457.50 391.49 463.83 395.24 C 465.19 401.48 452.82 396.43 453.08 401.94 C 458.70 401.54 465.02 400.75 469.95 404.04 C 470.53 410.90 459.30 400.87 463.04 407.93 C 465.10 418.15 444.93 404.35 447.73 413.32 C 455.14 414.61 459.12 424.17 458.99 430.22 C 450.89 432.89 447.32 420.39 445.75 415.21 C 441.92 419.27 450.02 426.44 447.15 431.94 C 443.31 431.17 444.08 425.88 441.07 425.05 C 440.76 432.62 451.97 436.71 449.65 442.55 C 460.86 444.16 451.24 453.34 449.63 458.82 C 444.69 462.81 440.95 452.08 438.83 458.94 C 433.54 457.15 427.77 454.92 422.29 457.32 C 421.88 460.78 428.39 456.78 430.89 458.95 C 429.84 466.21 416.82 459.62 415.85 467.04 C 421.79 464.11 434.31 463.42 435.83 470.62 C 430.27 472.77 420.27 475.71 415.54 469.20 C 407.05 472.37 424.54 476.38 420.29 484.71 C 409.59 484.40 423.29 489.86 418.91 492.76 C 411.76 492.60 413.14 480.76 407.05 480.27 C 406.60 484.31 410.09 487.71 409.54 491.72 C 402.45 491.66 402.32 481.01 404.90 475.97 C 394.78 479.77 404.12 499.61 413.94 501.20 C 410.80 505.93 405.56 499.18 401.84 498.09 C 403.93 504.35 411.51 506.38 417.37 507.30 C 415.49 502.37 427.90 500.89 426.03 506.84 C 426.25 512.12 415.34 505.37 419.64 509.42 C 424.27 511.23 423.08 521.20 429.24 518.46 C 440.66 515.11 423.89 500.40 438.18 499.23 C 435.92 504.91 439.58 510.49 438.06 516.04 C 442.99 511.97 450.03 513.53 455.26 509.80 C 452.32 507.15 442.60 510.47 443.57 505.42 C 453.15 507.41 460.56 501.00 469.05 498.05 C 468.25 495.70 462.97 496.37 464.10 493.10 C 472.42 490.78 467.95 475.61 461.07 471.70 C 462.08 468.32 465.90 471.33 467.91 472.08 C 467.51 464.95 450.99 458.69 452.94 469.92 C 450.25 478.03 459.46 475.85 463.36 478.70 C 467.38 485.68 461.57 493.44 458.31 499.40 C 452.66 504.93 446.07 493.33 440.01 498.82 C 439.73 495.02 439.74 490.99 435.04 489.00 C 441.32 484.17 427.40 482.16 433.35 477.21 C 438.16 476.91 445.29 480.95 446.72 484.64 C 438.28 489.52 449.85 496.57 455.59 496.84 C 459.15 493.46 460.78 487.54 459.83 482.65 C 455.34 479.97 445.90 479.18 448.56 471.67 C 450.77 458.99 443.83 473.92 440.92 467.00 C 441.79 457.72 455.23 462.83 459.93 457.57 C 460.33 450.95 454.73 444.67 456.87 438.08 C 458.75 433.05 466.01 440.35 460.42 441.43 C 461.92 445.48 467.38 440.21 469.61 438.20 C 474.40 438.38 477.27 442.89 481.15 445.02 C 486.64 444.13 489.82 438.79 491.83 434.11 C 488.14 429.90 478.08 423.06 476.47 432.53 C 466.75 435.40 458.21 417.05 472.13 423.84 C 474.55 416.81 480.52 425.82 484.95 420.18 C 484.11 427.82 498.16 427.63 495.11 436.06 C 492.06 441.17 488.67 447.88 482.68 449.71 C 475.95 452.22 474.41 438.99 467.91 444.94 C 455.58 449.06 470.74 460.18 475.74 457.45 C 463.10 446.97 497.26 458.62 492.57 443.32 C 503.30 447.48 499.09 426.80 493.38 420.80 C 495.89 415.26 499.43 425.80 502.76 427.09 C 503.69 421.04 498.20 416.21 499.96 410.27 C 494.33 412.11 488.92 414.36 484.46 418.41 C 479.33 404.64 504.38 412.25 496.33 397.86 C 492.74 397.05 486.87 398.72 482.69 396.17 C 483.22 398.79 488.51 400.21 486.07 403.08 C 482.47 408.18 477.31 398.79 480.84 395.91 C 478.58 390.40 472.45 386.72 466.48 386.90 M 434.38 417.16 C 429.57 420.48 430.55 428.99 434.04 432.66 C 434.18 427.98 430.00 416.79 438.15 419.65 C 438.05 417.67 436.27 416.40 434.38 417.16 M 437.38 424.03 C 434.60 427.21 438.43 434.22 441.95 436.25 C 439.79 432.41 438.08 428.34 437.38 424.03 M 423.41 447.33 C 417.16 446.23 405.98 457.50 416.73 458.22 C 405.92 452.74 430.42 447.77 423.41 447.33 M 427.03 451.45 C 423.50 451.66 419.52 452.69 417.79 456.07 C 420.48 453.27 438.36 452.38 427.03 451.45 M 493.64 452.49 C 490.50 453.86 485.89 454.08 484.54 457.77 C 486.70 456.13 500.83 454.88 493.64 452.49 M 472.31 478.87 C 470.69 481.89 470.77 489.71 475.18 491.18 C 473.20 487.33 472.91 482.90 472.31 478.87 M 397.22 481.11 C 395.56 486.41 395.64 494.27 401.19 497.11 C 398.05 492.19 397.85 486.21 397.22 481.11 Z" />
<path fill="#000000" opacity="1.00" d=" M 331.08 369.05 C 338.20 374.17 325.67 380.14 331.08 369.05 Z" />
<path fill="#000000" opacity="1.00" d=" M 313.33 370.60 C 317.63 367.22 328.04 374.93 317.47 373.32 C 308.63 370.63 323.16 381.46 315.49 380.85 C 313.10 378.53 306.96 370.47 313.33 370.60 Z" />
<path fill="#000000" opacity="1.00" d=" M 342.99 370.37 C 353.80 367.01 354.23 375.48 347.51 380.85 C 341.63 381.00 348.60 375.58 348.85 372.87 C 345.44 374.05 337.20 373.74 342.99 370.37 Z" />
<path fill="#000000" opacity="1.00" d=" M 325.90 374.04 C 328.96 375.78 329.00 381.15 331.85 382.66 C 333.20 377.62 339.67 370.10 337.17 379.87 C 346.17 382.95 338.35 384.63 332.20 384.52 C 337.55 389.60 337.78 396.00 331.15 390.32 C 319.45 399.33 337.30 380.11 325.97 383.86 C 315.11 383.79 328.86 380.28 325.90 374.04 Z" />
<path fill="#000000" opacity="1.00" d=" M 321.47 387.13 C 332.16 387.31 313.04 395.06 321.47 387.13 Z" />
<path fill="#000000" opacity="1.00" d=" M 338.21 386.99 C 348.63 386.36 339.69 396.02 338.21 386.99 Z" />
<path fill="#000000" opacity="1.00" d=" M 321.29 397.23 C 327.37 396.42 323.99 408.15 330.52 409.44 C 338.93 411.33 335.42 394.64 342.44 397.61 C 344.42 404.71 337.70 410.75 331.85 413.67 C 325.88 412.17 317.23 403.51 321.29 397.23 Z" />
<path fill="#000000" opacity="1.00" d=" M 326.19 397.26 C 330.90 394.87 330.42 409.21 332.89 400.88 C 334.89 392.67 339.40 400.70 334.65 404.63 C 331.28 412.37 325.12 401.79 326.19 397.26 Z" />
<path fill="#000000" opacity="1.00" d=" M 185.20 406.35 C 188.91 406.11 190.50 412.34 186.04 413.03 C 180.34 419.65 177.78 406.20 185.20 406.35 Z" />
<path fill="#000000" opacity="1.00" d=" M 477.11 406.16 C 481.33 406.73 484.32 410.73 481.60 414.63 C 477.26 415.88 470.46 408.80 477.11 406.16 Z" />
<path fill="#000000" opacity="1.00" d=" M 274.92 412.17 C 284.15 412.63 274.22 424.40 274.92 412.17 Z" />
<path fill="#000000" opacity="1.00" d=" M 386.37 412.00 C 393.25 419.08 378.04 418.75 386.37 412.00 Z" />
<path fill="#000000" opacity="1.00" d=" M 331.16 436.24 C 345.10 443.96 328.60 464.87 331.93 477.84 C 330.19 468.14 329.71 455.98 326.49 445.36 C 324.08 441.10 327.84 437.82 331.16 436.24 Z" />
<path fill="#000000" opacity="1.00" d=" M 139.32 440.05 C 143.57 439.69 142.62 446.43 140.81 448.93 C 138.25 457.58 143.48 466.13 142.23 474.84 C 147.84 474.97 145.33 464.87 151.77 466.21 C 151.46 472.48 147.88 481.27 152.90 486.20 C 153.59 471.33 167.18 490.97 153.33 486.90 C 154.91 493.73 163.99 495.59 169.83 497.16 C 170.26 503.73 158.49 497.34 158.08 501.67 C 166.89 507.03 174.09 515.37 184.62 517.37 C 189.07 517.20 186.94 525.81 182.07 522.02 C 169.78 520.82 158.77 513.93 149.70 505.94 C 143.37 511.28 152.09 520.46 150.55 527.42 C 144.19 530.34 144.69 511.33 139.02 523.00 C 136.97 529.74 130.03 526.30 134.51 521.39 C 138.14 513.61 125.32 525.51 126.05 518.46 C 133.62 513.93 144.19 505.45 138.75 495.43 C 133.74 485.38 120.16 488.75 112.73 493.94 C 103.70 491.94 125.17 483.89 110.28 484.79 C 104.39 482.59 113.50 479.55 116.58 480.37 C 125.49 479.43 108.97 470.28 117.83 468.03 C 122.25 473.04 127.41 480.35 134.61 480.62 C 131.85 467.30 130.46 451.53 139.32 440.05 M 137.14 465.95 C 133.53 472.72 146.29 484.90 134.07 485.72 C 140.41 489.58 143.57 496.90 144.70 503.98 C 149.24 492.55 158.15 512.55 162.85 510.18 C 157.14 503.60 149.45 497.25 149.86 487.36 C 140.92 483.94 140.32 472.87 137.14 465.95 M 127.05 482.11 C 125.14 488.55 137.74 484.46 127.05 482.11 M 143.38 505.05 C 137.90 511.42 146.55 515.07 143.38 505.05 Z" />
<path fill="#000000" opacity="1.00" d=" M 522.14 440.17 C 533.29 447.73 531.04 468.04 528.39 480.61 C 535.62 480.33 540.73 473.04 545.18 468.05 C 553.78 470.29 537.19 480.35 547.13 480.46 C 552.40 478.85 559.64 486.00 549.30 485.16 C 542.04 486.69 558.26 491.36 550.95 493.94 C 543.08 490.32 531.39 484.62 525.01 494.13 C 518.17 504.02 528.39 513.17 536.35 517.83 C 539.70 526.05 524.43 513.61 528.49 521.38 C 532.97 526.30 526.02 529.74 523.98 523.00 C 518.31 511.34 518.81 530.32 512.45 527.43 C 510.87 520.77 519.64 510.50 513.28 505.98 C 503.28 515.02 490.20 522.78 476.28 521.82 C 474.22 517.30 480.04 516.91 482.91 515.85 C 491.78 513.90 497.11 505.71 504.94 501.70 C 504.21 497.65 492.88 503.53 493.18 497.17 C 498.54 495.86 509.14 493.18 509.25 487.02 C 496.07 490.98 509.54 471.02 510.17 486.29 C 514.17 480.56 511.77 472.67 511.23 466.24 C 517.36 464.97 515.33 473.83 520.01 474.84 C 522.06 464.76 522.49 450.48 522.14 440.17 M 525.10 466.15 C 523.37 474.47 521.12 483.83 512.79 488.03 C 513.29 498.12 504.95 503.82 499.90 510.87 C 506.08 509.14 509.46 502.27 514.85 500.01 C 521.56 509.71 519.67 487.53 528.92 485.72 C 516.01 485.45 531.84 470.24 525.10 466.15 M 535.26 482.34 C 524.27 486.05 540.41 486.77 535.26 482.34 M 518.89 505.34 C 517.99 517.93 524.96 508.06 518.89 505.34 Z" />
<path fill="#000000" opacity="1.00" d=" M 143.02 487.20 C 146.51 486.85 147.31 492.19 148.06 494.89 C 144.48 495.28 141.94 490.27 143.02 487.20 Z" />
<path fill="#000000" opacity="1.00" d=" M 518.36 487.08 C 522.89 487.14 518.59 495.99 514.94 494.89 C 515.30 492.05 516.64 489.34 518.36 487.08 Z" />
<path fill="#000000" opacity="1.00" d=" M 235.40 493.40 C 242.16 493.46 237.34 504.17 231.80 500.35 C 225.76 498.12 232.22 494.44 235.40 493.40 Z" />
<path fill="#000000" opacity="1.00" d=" M 426.16 493.13 C 428.92 493.80 432.85 495.33 433.94 497.93 C 431.17 504.62 419.43 498.53 426.16 493.13 Z" />
</svg>
